<svg xmlns="http://www.w3.org/2000/svg" width="32" height="29" viewBox="0 0 32 29">
    <g fill="none">
        <path fill="#199944" d="M28.832 22.814c-.818-.76-2.099-.714-2.86.104-1.488 1.598-3.747 2.103-5.497 1.233-.91-.414-1.557-1.25-1.728-2.236-.09-.56-.12-1.13-.09-1.697 0-.285.02-.58.036-.877.024-.5.05-1.018.05-1.549v-6.543c0-.972-.693-1.808-1.648-1.989-.614-.136-1.256.01-1.75.397l-3.754 2.923c-.906.718-1.062 2.032-.35 2.942.717.908 2.034 1.064 2.944.35l.503-.391v2.322c0 .432-.021.864-.043 1.335-.054 1.08-.114 2.285.119 3.523.082.446.205.883.367 1.306.672 1.66 1.93 3.013 3.536 3.804 1.129.559 2.372.847 3.631.843 2.524-.02 4.927-1.085 6.638-2.94.76-.819.714-2.099-.104-2.86z"/>
        <path fill="#15998A" d="M26.063 3.588c6.687 5.427 7.932 15.15 2.827 22.086-.11.151-.533-.13-.671-.156-.34-.06-.454-.175-.882-.175-.427 0 0-.449-.352-.706-.864-.648-1.345-.363-.704-1.233.097-.134-.348-.32-.255-.458 3.537-5.25 2.483-12.33-2.43-16.321"/>
        <path fill="#B0C514" d="M23.99 6.836c.166-.179.26-.334.457-.542.698-.745 1.08-1.762 1.668-2.592.012-.02.027-.039.043-.056-1.763-1.492-3.85-2.426-6.063-3.048C14.437-.984 8.366.626 4.236 4.804c0 0 2.402 3.136 2.786 2.75 3.13-3.165 7.73-4.383 12.017-3.182 1.782.499 3.456 1.244 4.842 2.486.005-.006.104-.024.108-.022z"/>
        <path fill="#5CAD5D" d="M6.945 7.592c-4.303 4.904-3.99 12.323.708 16.848.712.762.701 1.949-.024 2.698-.726.749-1.91.797-2.695.11C-1.265 21.27-1.676 11.478 4 5"/>
        <circle cx="5.46" cy="6.268" r="1.966" fill="#268035" transform="rotate(-1.4 5.46 6.268)"/>
        <circle cx="25.048" cy="5.251" r="1.94" fill="#1E694E"/>
        <circle cx="27.603" cy="24.196" r="2.026" fill="#0B6A38"/>
    </g>
</svg>
