<svg xmlns="http://www.w3.org/2000/svg" width="52" height="48" style="" ><rect id="backgroundrect" width="100%" height="100%" x="0" y="0" fill="none" stroke="none"/>
    
<g class="currentLayer" style=""><title>Layer 1</title><g fill="none" fill-rule="evenodd" id="svg_1" class="" transform="rotate(30.57749366760254 30.299846649169915,30.651447296142578) ">
        <path fill="#FFF" d="M0 5.6H44V49.6H0z" transform="rotate(-30 31.843999862670902,13.637999534606934) " id="svg_2"/>
        <path stroke="#3F9C67" stroke-width="4" d="M26.821 24.966v18.008c0 2.624-1.934 4.752-4.32 4.752-2.385 0-4.32-2.128-4.32-4.752V27.343v-2.377" transform="rotate(-30 31.843999862670902,13.637999534606934) " id="svg_3"/>
        <path fill="#AFC514" fill-rule="nonzero" d="M28.561 27.545c3.604-2.102 6.059-5.967 6.058-10.429 0-3.22-1.254-6.252-3.535-8.533-1.2-1.199-2.607-2.118-4.184-2.733-.622-.241-1.323-.163-1.874.214-.548.377-.878 1.001-.878 1.666l-.001 7.367h-3.66l.002-7.222c-.001-.68-.34-1.322-.915-1.689-.57-.375-1.29-.434-1.915-.16-4.416 1.931-7.267 6.285-7.268 11.093 0 3.236 1.26 6.278 3.548 8.566.758.758 1.606 1.392 2.51 1.916l12.112-.056zM14.428 17.119c0-2.002.743-3.886 2.021-5.333v5.331c0 1.117.902 2.019 2.018 2.019h7.697c.537 0 1.048-.211 1.428-.591.38-.38.592-.893.59-1.428l.005-5.722.042.043c1.518 1.517 2.353 3.534 2.352 5.676 0 4.454-3.624 8.078-8.077 8.077-4.312.001-8.073-3.76-8.076-8.072z" transform="rotate(-30 31.843999862670902,13.637999534606934) " id="svg_4"/>
        <path stroke="#227E2D" stroke-width="4" d="M14.13 22.726c1.852 2.287 4.218 4.476 8.371 4.476 4.154 0 6.937-2.19 8.5-4.632" transform="rotate(-30 31.843999862670902,13.637999534606934) " id="svg_5"/>
    </g></g></svg>