<svg xmlns="http://www.w3.org/2000/svg" width="152" height="28" viewBox="0 0 152 28">
    <g fill="none" fill-rule="evenodd" transform="translate(0 -1)">
        <rect width="5" height="27" x="10" y="2" fill="#3F9C67" rx="2.5"/>
        <rect width="5" height="25" x="10" y="-8" fill="#AFC514" rx="2.5" transform="rotate(-90 12.5 4.5)"/>
        <path fill="#227E2D" d="M12.5 2C13.88 2 15 3.12 15 4.5V7h-5V4.5C10 3.12 11.12 2 12.5 2z"/>
        <rect width="5" height="19" x="66" fill="#AFC514" rx="2.5" transform="rotate(-50 68.5 9.5)"/>
        <rect width="5" height="27" x="60" y="2" fill="#3F9C67" rx="2.5"/>
        <path fill="#227E2D" d="M60.55 2.946l.017-.021c.862-1.07 2.428-1.239 3.497-.377.247.199.453.443.608.719.219.388.328.777.328 1.166v5.4L60.902 6.44c-1.053-.872-1.21-2.429-.352-3.493z"/>
        <rect width="5" height="19" x="77" fill="#AFC514" rx="2.5" transform="scale(-1 1) rotate(-50 0 179.988)"/>
        <rect width="5" height="27" x="83" y="2" fill="#3F9C67" rx="2.5" transform="matrix(-1 0 0 1 171 0)"/>
        <path fill="#227E2D" d="M87.456 2.946l-.016-.021c-.862-1.07-2.428-1.239-3.498-.377-.247.199-.453.443-.608.719-.218.388-.328.777-.328 1.166v5.4l4.099-3.394c1.052-.872 1.21-2.429.351-3.493z"/>
        <rect width="5" height="19" x="101" fill="#AFC514" rx="2.5" transform="rotate(-50 103.5 9.5)"/>
        <rect width="5" height="27" x="95" y="2" fill="#3F9C67" rx="2.5"/>
        <path fill="#227E2D" d="M95.55 2.946l.017-.021c.862-1.07 2.428-1.239 3.497-.377.247.199.453.443.608.719.219.388.328.777.328 1.166v5.4L95.902 6.44c-1.053-.872-1.21-2.429-.352-3.493z"/>
        <rect width="5" height="19" x="112" fill="#AFC514" rx="2.5" transform="scale(-1 1) rotate(-50 0 255.046)"/>
        <rect width="5" height="27" x="118" y="2" fill="#3F9C67" rx="2.5" transform="matrix(-1 0 0 1 241 0)"/>
        <path fill="#227E2D" d="M122.456 2.946l-.016-.021c-.862-1.07-2.428-1.239-3.498-.377-.247.199-.453.443-.608.719-.218.388-.328.777-.328 1.166v5.4l4.099-3.394c1.052-.872 1.21-2.429.351-3.493z"/>
        <g transform="translate(32 2)">
            <path stroke="#3F9C67" stroke-width="5" d="M9.5 24.5C4.253 24.5 0 20.247 0 15v-3c0-5.247 4.253-9.5 9.5-9.5"/>
            <path stroke="#AFC514" stroke-width="5" d="M9.5 24.5c5.247 0 9.5-4.253 9.5-9.5v-3c0-5.247-4.253-9.5-9.5-9.5"/>
            <rect width="5" height="5" x="7" fill="#227E2D" rx="2.5"/>
            <rect width="5" height="5" x="7" y="22" fill="#227E2D" rx="2.5"/>
        </g>
        <rect width="5" height="13" x="138.3" y="16.024" fill="#AFC514" rx="2.5"/>
        <path fill="#3F9C67" d="M140.662 22.937c-.826-.027-1.616-.48-2.039-1.259l-8.66-15.97c-.632-1.168-.242-2.626.89-3.322l.147-.09c.037-.023.075-.045.113-.066 1.169-.634 2.63-.2 3.264.969l6.423 11.846 6.423-11.846c.634-1.169 2.095-1.603 3.264-.969.038.02.076.043.113.065l.148.091c1.131.696 1.521 2.154.888 3.322l-8.66 15.97c-.422.78-1.212 1.232-2.038 1.259z"/>
        <rect width="5" height="8" x="138.3" y="15.024" fill="#227E2D" rx="2.5"/>
    </g>
</svg>
