<svg xmlns="http://www.w3.org/2000/svg" width="152" height="28" viewBox="0 0 152 28">
    <g fill="none" fill-rule="evenodd" transform="translate(0 -1)">
        <rect width="5" height="13" x="138.3" y="16.024" fill="#AFC514" rx="2.5"/>
        <path fill="#3F9C67" d="M140.662 22.937c-.826-.027-1.616-.48-2.039-1.259l-8.66-15.97c-.632-1.168-.242-2.626.89-3.322l.147-.09c.037-.023.075-.045.113-.066 1.169-.634 2.63-.2 3.264.969l6.423 11.846 6.423-11.846c.634-1.169 2.095-1.603 3.264-.969.038.02.076.043.113.065l.148.091c1.131.696 1.521 2.154.888 3.322l-8.66 15.97c-.422.78-1.212 1.232-2.038 1.259z"/>
        <rect width="5" height="8" x="138.3" y="15.024" fill="#227E2D" rx="2.5"/>
    </g>
</svg>
