<svg xmlns="http://www.w3.org/2000/svg" width="40" height="44" viewBox="0 0 40 44">
    <g fill="none" fill-rule="evenodd" transform="translate(2 2)">
        <rect width="27" height="34" fill="#FFF" stroke="#3F9C67" stroke-width="4" rx="1"/>
        <rect width="19" height="3" x="4" y="6" fill="#AFC514" rx="1.5"/>
        <rect width="19" height="3" x="4" y="13" fill="#AFC514" rx="1.5"/>
        <rect width="12" height="3" x="4" y="20" fill="#AFC514" rx="1.5"/>
        <circle cx="27" cy="31.5" r="9" fill="#FFF" stroke="#AFC514" stroke-width="3"/>
        <path fill="#227E2D" d="M25 21.188c.667-.135 1.333-.202 2-.202s1.333.067 2 .202v3.076c-1.464-.108-2.798-.108-4 0v-3.076z"/>
        <g transform="translate(25 26.4)">
            <rect width="3" height="8.7" fill="#AFC514" rx="1.5"/>
            <rect width="3" height="6.4" x="1.7" y="4" fill="#AFC514" rx="1.5" transform="rotate(90 3.2 7.2)"/>
            <circle cx="1.7" cy="7" r="1.7" fill="#227E2D"/>
        </g>
    </g>
</svg>
