<svg xmlns="http://www.w3.org/2000/svg" width="35" height="42" viewBox="0 0 35 42">
    <g fill="none" fill-rule="evenodd">
        <path d="M0 0H44V44H0z" transform="translate(-5 -1)"/>
        <g transform="translate(-5 -1) translate(7 3)">
            <circle cx="15.5" cy="22.5" r="15.5" stroke="#3F9C67" stroke-width="4"/>
            <path stroke="#AFC514" stroke-width="4" d="M7 10V2c0-1.105.895-2 2-2h13c1.105 0 2 .895 2 2v8h0"/>
            <rect width="4" height="12" x="13" y="13" fill="#AFC514" rx="2"/>
            <rect width="4" height="12" x="15.8" y="19.8" fill="#AFC514" rx="2" transform="rotate(135 17.8 25.8)"/>
            <rect width="4" height="4" x="13" y="21" fill="#227E2D" rx="2" transform="rotate(90 15 23)"/>
            <path stroke="#227E2D" stroke-width="4" d="M24 5L24 10M7 10L7 5"/>
        </g>
    </g>
</svg>
